PathFileType	4	(X/Y/Z)	Kaydara	
DataRate	CameraRate	NumFrames	NumMarkers	Units	OrigDataRate	OrigDataStartFrame	OrigNumFrames	
60.00	60.00	4	74	mm	60.00	1042	111	
Frame#	Time	Y_rasi			Y_rpsi			Y_lpsi			Y_fneck			Y_bneck			Y_fhead			Y_rhead			Y_rshld			Y_relbtop			Y_relbext			Y_relblow			Y_rwrext			Y_rwrtop			Y_rwrlow			Y_lshld			Y_lelbext			Y_lelblow			Y_lelbtop			Y_lwrext			Y_lwrtop			Y_lwrlow			Y_rtopleg			Y_ltopleg			Y_rkneefr			Y_rkneebk			Y_rkneeis			Y_lkneefr			Y_lknssbk			Y_lkneeis			Y_rankfr			Y_rankis			Y_rankbk			Y_lankfr			Y_lankbk			Y_lankis			Y_lhead			Y_lasi			D_rpsi			D_lpsi			D_fneck			D_bneck			D_fhead			D_rhead			D_lhead			D_rshld			D_relbtop			D_relbext			D_relblow			D_rwrext			D_rwrtop			D_rwrlow			D_lshld			D_lelbext			D_lelblow			D_lelbtop			D_lwrext			D_lwrtop			D_lwrlow			D_rtopleg			D_ltopleg			D_rkneefr			D_rkneebk			D_rkneeis			D_lkneefr			D_lknssbk			D_lkneeis			D_rankfr			D_rankis			D_rankbk			D_lankfr			D_lankbk			D_lankis			D_lasi			D_rasi			
		X1	Y1	Z1	X2	Y2	Z2	X3	Y3	Z3	X4	Y4	Z4	X5	Y5	Z5	X6	Y6	Z6	X7	Y7	Z7	X8	Y8	Z8	X9	Y9	Z9	X10	Y10	Z10	X11	Y11	Z11	X12	Y12	Z12	X13	Y13	Z13	X14	Y14	Z14	X15	Y15	Z15	X16	Y16	Z16	X17	Y17	Z17	X18	Y18	Z18	X19	Y19	Z19	X20	Y20	Z20	X21	Y21	Z21	X22	Y22	Z22	X23	Y23	Z23	X24	Y24	Z24	X25	Y25	Z25	X26	Y26	Z26	X27	Y27	Z27	X28	Y28	Z28	X29	Y29	Z29	X30	Y30	Z30	X31	Y31	Z31	X32	Y32	Z32	X33	Y33	Z33	X34	Y34	Z34	X35	Y35	Z35	X36	Y36	Z36	X37	Y37	Z37	X38	Y38	Z38	X39	Y39	Z39	X40	Y40	Z40	X41	Y41	Z41	X42	Y42	Z42	X43	Y43	Z43	X44	Y44	Z44	X45	Y45	Z45	X46	Y46	Z46	X47	Y47	Z47	X48	Y48	Z48	X49	Y49	Z49	X50	Y50	Z50	X51	Y51	Z51	X52	Y52	Z52	X53	Y53	Z53	X54	Y54	Z54	X55	Y55	Z55	X56	Y56	Z56	X57	Y57	Z57	X58	Y58	Z58	X59	Y59	Z59	X60	Y60	Z60	X61	Y61	Z61	X62	Y62	Z62	X63	Y63	Z63	X64	Y64	Z64	X65	Y65	Z65	X66	Y66	Z66	X67	Y67	Z67	X68	Y68	Z68	X69	Y69	Z69	X70	Y70	Z70	X71	Y71	Z71	X72	Y72	Z72	X73	Y73	Z73	X74	Y74	Z74	

42	17.350	-540.57716	1094.87343	-145.26237	-537.44667	1074.78622	-329.52072	-308.24450	1058.77083	-264.20420	-443.05946	1433.79333	-171.55441	-360.48183	1481.26938	-251.61615	-492.68421	1636.44394	-115.84948	-459.61960	1568.03329	-278.31663	-584.58157	1432.11288	-296.67078	-624.38522	1122.28523	-346.56406	-639.29993	1141.46698	-401.26530	-573.11275	1122.34177	-414.75616	-661.90636	869.74525	-321.40179	-685.00496	885.35042	-288.84472	-654.20761	898.92082	-258.95554	-221.08416	1383.21411	-122.11044	-157.82526	1071.88965	-183.70684	-206.54161	1064.65424	-216.76517	-208.99851	1080.12016	-144.05335	-250.28475	834.80820	-115.15401	-255.01276	842.67693	-71.92970	-292.46525	867.14417	-67.72794	-611.81133	917.35336	-288.15432	-274.43594	906.21796	-153.06399	-636.21830	412.62592	-278.39127	-613.16380	455.43652	-353.70056	-540.68089	417.94022	-267.71780	-328.19111	476.30039	-124.04400	-263.03787	493.54305	-216.62006	-383.93475	469.81400	-201.83914	-630.98949	142.24064	-329.99279	-559.87423	133.66509	-342.23541	-600.55454	136.93056	-396.35143	-273.71460	131.65911	-171.82549	-256.10683	128.41589	-239.22655	-329.98501	126.43747	-209.76542	-339.70695	1571.58951	-183.88288	-384.53716	1076.84906	-97.37587	-893.42545	1173.10890	603.80886	-1044.74907	1193.96858	514.79397	-887.56897	1612.94250	470.28915	-954.41711	1660.00107	567.01237	-952.57713	1793.72864	355.51529	-885.37888	1809.01321	519.82155	-1033.09525	1770.58655	510.47455	-780.15366	1620.05875	582.70355	-719.11888	1254.48662	574.97360	-667.79037	1276.72112	616.35014	-736.44310	1263.94417	658.07961	-629.80545	978.24341	654.14246	-599.08321	983.37929	626.00758	-621.15192	982.81578	582.56321	-1075.06874	1650.53864	450.70484	-1164.51141	1287.70905	387.15607	-1118.55766	1258.90572	442.03045	-1105.82817	1292.71591	361.99913	-1117.48451	1046.03012	306.72709	-1141.41640	1064.36127	271.23928	-1103.20038	1080.86784	247.98431	-784.34181	1031.49742	577.23946	-1083.75977	1035.89294	392.31678	-808.83240	552.63721	482.21626	-811.71837	559.17324	594.37286	-918.37791	548.46016	526.14059	-989.40514	470.35728	355.96012	-1073.93639	519.38568	413.55507	-982.50420	499.90166	468.61916	-828.22037	190.17078	550.97145	-904.70078	187.05982	537.63649	-876.26442	183.36304	618.12317	-1052.32239	164.09920	409.57321	-1069.86320	160.30592	486.44455	-987.83142	164.44752	440.91850	-978.86467	1204.76280	374.25327	-795.97244	1186.41838	465.42530 
43	17.367	-540.84839	1094.83139	-145.00234	-537.72095	1074.80675	-329.16798	-308.49447	1058.79250	-263.97491	-442.87651	1434.15863	-171.69357	-360.45456	1481.31134	-251.90313	-492.70412	1636.58768	-116.12983	-459.37340	1568.31619	-278.61197	-584.56573	1431.87881	-296.95557	-624.22508	1121.67725	-345.16499	-639.28490	1140.54810	-399.97513	-573.08800	1121.54709	-413.43685	-661.78207	868.67073	-320.60257	-684.91875	884.21745	-288.25306	-654.39499	897.75330	-258.32302	-221.45363	1383.34747	-121.94171	-157.93429	1071.81007	-182.10339	-206.32612	1064.56703	-215.57020	-209.80511	1079.95407	-142.90537	-250.20367	834.28291	-114.63409	-255.00656	842.04376	-71.57094	-292.60960	866.63223	-67.23886	-612.01439	917.31926	-287.91336	-274.69000	906.19522	-152.88081	-635.84312	412.72835	-278.78128	-613.01033	455.50106	-354.03259	-540.22675	418.14365	-268.26740	-328.40355	476.29665	-123.96930	-263.27383	493.53966	-216.55552	-384.15707	469.79301	-201.79018	-630.95814	142.30107	-330.10456	-559.91344	133.64737	-342.27818	-600.47741	136.89343	-396.45500	-273.80524	131.65125	-171.75732	-256.17420	128.42816	-239.21919	-330.03876	126.42406	-209.73734	-339.50241	1571.70700	-184.23220	-384.84657	1076.92123	-97.89186	-896.95999	1173.24539	602.72961	-1047.57668	1194.34570	512.30202	-891.34895	1612.07352	467.85793	-955.30556	1660.37720	565.71098	-959.49081	1792.98065	352.73266	-884.55818	1808.42255	514.84119	-1033.04260	1772.09152	512.30999	-782.50298	1619.79660	581.05022	-717.70889	1254.44847	575.56450	-668.43338	1277.60056	618.51952	-738.20107	1263.96469	657.80014	-627.40833	979.78027	660.13229	-596.41823	984.94743	632.57233	-616.48628	984.20227	588.30078	-1077.75406	1650.31418	449.52335	-1168.21701	1288.34198	383.41118	-1121.96800	1258.88535	437.70981	-1109.77089	1293.18192	358.29258	-1123.07335	1046.78238	301.46933	-1147.48795	1065.28160	266.58550	-1109.51797	1081.69617	242.89137	-787.71118	1031.88538	576.91273	-1085.36545	1036.25473	389.59198	-809.74236	553.30647	481.04652	-813.32474	559.51923	593.06679	-919.57314	548.44715	524.43199	-991.41586	470.58098	358.86829	-1076.61583	519.78497	415.56789	-985.29213	500.74474	471.18046	-828.67844	190.37489	550.58460	-905.14252	186.98997	536.96358	-876.88995	183.65053	617.62383	-1052.89528	164.13780	409.98711	-1070.75882	159.99748	486.66817	-988.58292	164.64611	441.66290	-980.28526	1204.78378	372.64275	-797.99797	1186.45958	465.11040 
44	17.383	-541.60187	1094.99954	-145.45788	-537.93751	1074.81064	-328.80192	-308.65875	1058.79265	-263.79766	-442.89585	1434.36996	-171.88795	-360.38586	1481.29730	-252.06291	-492.73361	1636.65619	-116.43236	-459.16958	1568.44162	-278.93295	-584.62486	1431.55121	-297.25975	-624.10355	1121.14601	-344.11358	-639.25644	1139.82483	-398.85021	-572.94418	1120.78857	-412.18201	-661.71432	867.70805	-319.93872	-684.88220	883.22990	-287.55028	-654.45526	897.16156	-257.64303	-221.74818	1383.37524	-121.71411	-158.12419	1071.68526	-180.83239	-206.27451	1064.47952	-214.72561	-210.39789	1079.86511	-142.15795	-250.24443	833.80760	-114.45573	-255.24990	841.55998	-71.36723	-292.72221	865.88478	-67.12919	-612.20127	917.31339	-287.61988	-274.90704	906.18217	-152.72887	-635.61253	412.77756	-279.12846	-612.85686	455.57964	-354.40315	-539.83883	418.34869	-268.69797	-328.46020	476.26747	-124.05498	-263.47906	493.59116	-216.64156	-384.32083	469.78420	-201.82512	-630.88730	142.35114	-330.24532	-559.92882	133.63313	-342.30145	-600.43190	136.86131	-396.54621	-273.68677	131.56039	-171.90109	-256.25290	128.44125	-239.22531	-330.08579	126.39959	-209.75401	-339.22642	1571.73889	-184.56722	-384.99477	1076.89629	-97.76967	-900.18013	1173.43781	601.70422	-1050.39009	1194.36096	510.28091	-894.46930	1611.44302	465.66647	-956.92711	1660.26230	564.21848	-963.98842	1792.65045	351.34575	-884.59755	1807.84912	511.26003	-1033.84331	1773.43246	512.25094	-784.65088	1618.91769	579.66869	-716.91452	1253.58055	575.91408	-669.28558	1277.64496	620.40405	-739.88869	1263.42346	657.46704	-627.72831	980.76218	663.61519	-593.81969	986.10191	638.98125	-611.78787	985.28275	593.98556	-1081.24794	1649.40369	448.83995	-1171.83922	1288.27560	379.90635	-1125.57892	1258.31482	433.83537	-1113.80066	1293.15933	354.19701	-1128.67371	1046.86584	296.35193	-1153.46802	1065.63927	261.79640	-1115.75027	1081.96838	237.68496	-791.08368	1032.30865	576.73313	-1087.32895	1036.47697	387.06322	-810.71594	553.75660	479.89735	-815.02373	559.68334	592.10754	-920.74585	548.33397	522.92496	-993.45154	470.91267	361.55399	-1079.19144	520.10880	417.53052	-987.83897	501.45401	473.93753	-829.22409	190.54222	550.12379	-905.54825	186.87223	536.54194	-877.61330	183.98218	617.24098	-1053.46733	164.13904	410.53947	-1071.30333	159.46644	487.13196	-989.16061	164.83717	442.24606	-982.04094	1204.75494	371.05381	-800.34363	1186.59882	464.55429 
45	17.400	-540.79460	1094.68521	-143.98968	-538.13843	1074.82414	-328.45066	-308.83799	1058.74268	-263.61839	-442.85793	1434.53949	-172.02393	-360.31136	1481.27060	-252.12534	-492.85561	1636.68625	-116.80755	-458.91930	1568.46268	-279.25508	-584.62288	1431.21887	-297.43353	-624.25652	1120.62630	-343.26443	-639.10557	1139.06242	-398.17791	-572.74876	1120.02403	-411.25561	-661.51657	866.85524	-319.31023	-684.94370	882.39090	-287.13753	-654.41956	896.52618	-257.08271	-222.14895	1383.30261	-121.48148	-158.41116	1071.52641	-179.85928	-206.27443	1064.38133	-214.12163	-210.75581	1079.80614	-141.36422	-250.51203	833.39470	-114.36334	-255.42086	841.07063	-71.30938	-292.87014	865.25566	-67.15121	-612.46899	917.52815	-287.42071	-275.12617	906.10558	-152.51040	-635.48248	412.84554	-279.37725	-612.74208	455.67913	-354.61372	-539.59915	418.46436	-269.03822	-328.54851	476.24218	-124.11926	-263.54965	493.62770	-216.84395	-384.41505	469.78706	-201.90426	-630.85049	142.39797	-330.38620	-559.94534	133.62753	-342.33219	-600.40157	136.84949	-396.61160	-273.35484	131.32048	-172.09681	-256.25532	128.40459	-239.24953	-330.10757	126.39420	-209.77400	-339.16615	1571.80298	-184.56751	-385.04730	1076.82030	-97.54877	-903.30811	1173.48282	600.58025	-1053.06038	1194.23737	508.65929	-897.00188	1611.45859	463.80951	-959.31549	1659.98962	562.48367	-966.38145	1792.87338	349.23496	-885.92155	1807.53571	508.15044	-1035.20737	1774.43924	510.52494	-786.76628	1617.43561	578.53031	-716.39420	1252.31766	576.86485	-669.97032	1277.07779	622.03136	-741.38252	1262.05826	657.79228	-626.82095	980.85220	667.54074	-591.70570	986.67374	644.65279	-606.93665	985.80017	598.63186	-1085.83031	1647.92252	448.34625	-1175.63057	1287.36130	376.65909	-1128.70377	1256.87416	429.74094	-1117.80945	1292.27356	350.57533	-1134.27750	1046.39870	291.28784	-1159.44969	1065.39268	257.06594	-1121.88599	1081.80061	232.70472	-794.16077	1032.55844	576.31989	-1089.45389	1036.58684	385.29259	-811.95183	554.17515	478.95313	-816.38847	559.86492	591.05118	-922.05383	548.35533	521.59241	-995.39413	471.18416	364.01894	-1081.71631	520.32459	419.35448	-990.84999	502.00882	476.50204	-829.66072	190.65386	549.96574	-906.03874	186.76041	536.08116	-878.30269	184.18371	616.84673	-1053.98041	164.17238	410.93117	-1072.22534	159.00346	487.49962	-989.81697	165.00538	443.00537	-984.41055	1204.49890	369.75006	-802.99744	1186.77933	463.73257 
